<?xml version="1.0" encoding="UTF-8" standalone="no"?>
<!-- Created with Inkscape (http://www.inkscape.org/) -->

<svg
   xmlns:dc="http://purl.org/dc/elements/1.1/"
   xmlns:cc="http://creativecommons.org/ns#"
   xmlns:rdf="http://www.w3.org/1999/02/22-rdf-syntax-ns#"
   xmlns:svg="http://www.w3.org/2000/svg"
   xmlns="http://www.w3.org/2000/svg"
   xmlns:sodipodi="http://sodipodi.sourceforge.net/DTD/sodipodi-0.dtd"
   xmlns:inkscape="http://www.inkscape.org/namespaces/inkscape"
   width="88.959518mm"
   height="14.552083mm"
   viewBox="0 0 88.959519 14.552083"
   version="1.1"
   id="svg8"
   inkscape:version="0.92.3 (2405546, 2018-03-11)"
   sodipodi:docname="logo-kariera.svg">
  <defs
     id="defs2">
    <clipPath
       id="clipPath178"
       clipPathUnits="userSpaceOnUse">
      <path
         inkscape:connector-curvature="0"
         id="path176"
         d="M 0,24.05 H 147.022 V 0 H 0 Z" />
    </clipPath>
  </defs>
  <sodipodi:namedview
     id="base"
     pagecolor="#ffffff"
     bordercolor="#666666"
     borderopacity="1.0"
     inkscape:pageopacity="0.0"
     inkscape:pageshadow="2"
     inkscape:zoom="5.6"
     inkscape:cx="91.689023"
     inkscape:cy="40.188342"
     inkscape:document-units="mm"
     inkscape:current-layer="layer1"
     showgrid="false"
     fit-margin-top="0"
     fit-margin-left="0"
     fit-margin-right="0"
     fit-margin-bottom="0"
     inkscape:window-width="1920"
     inkscape:window-height="1001"
     inkscape:window-x="-9"
     inkscape:window-y="-9"
     inkscape:window-maximized="1" />
  <metadata
     id="metadata5">
    <rdf:RDF>
      <cc:Work
         rdf:about="">
        <dc:format>image/svg+xml</dc:format>
        <dc:type
           rdf:resource="http://purl.org/dc/dcmitype/StillImage" />
        <dc:title></dc:title>
      </cc:Work>
    </rdf:RDF>
  </metadata>
  <g
     inkscape:label="Vrstva 1"
     inkscape:groupmode="layer"
     id="layer1"
     transform="translate(-374.72172,-340.74067)">
    <g
       transform="matrix(0.60507623,0,0,-0.60507623,374.72172,355.29275)"
       inkscape:label="Vektorový inteligentní objekt"
       id="g170">
      <g
         id="g172">
        <g
           clip-path="url(#clipPath178)"
           id="g174">
          <g
             transform="translate(29.2205,6.0741)"
             id="g180">
            <path
               inkscape:connector-curvature="0"
               id="path182"
               style="fill:#a6c725;fill-opacity:1;fill-rule:nonzero;stroke:none"
               d="m 0,0 c -0.001,-0.811 -0.279,-1.483 -0.836,-2.018 -0.558,-0.534 -1.244,-0.801 -2.059,-0.801 -1.178,0 -2.12,0.451 -2.823,1.354 l 0.774,0.88 c 0.627,-0.704 1.291,-1.056 1.993,-1.056 0.461,0 0.872,0.151 1.232,0.452 0.361,0.301 0.54,0.68 0.54,1.136 0,0.463 -0.214,0.869 -0.64,1.22 -0.212,0.176 -0.627,0.422 -1.246,0.738 -0.709,0.363 -1.228,0.723 -1.554,1.081 -0.445,0.48 -0.668,1.055 -0.667,1.724 -0.001,0.745 0.25,1.352 0.752,1.825 0.501,0.472 1.124,0.708 1.869,0.708 0.879,0 1.765,-0.431 2.656,-1.293 L -0.799,5.133 C -1.455,5.765 -2.096,6.082 -2.722,6.083 -3.103,6.082 -3.439,5.957 -3.73,5.706 -4.024,5.455 -4.17,5.143 -4.17,4.77 -4.17,4.141 -3.562,3.51 -2.344,2.881 -1.596,2.492 -1.051,2.122 -0.711,1.771 -0.237,1.277 -0.001,0.687 0,0" />
          </g>
          <g
             transform="translate(39.0164,3.5009)"
             id="g184">
            <path
               inkscape:connector-curvature="0"
               id="path186"
               style="fill:#a6c725;fill-opacity:1;fill-rule:nonzero;stroke:none"
               d="m 0,0 h -1.24 v 4.561 c 0,1.1 -0.044,1.835 -0.132,2.206 -0.304,1.27 -1.105,1.905 -2.402,1.906 C -4.518,8.672 -5.183,8.428 -5.77,7.939 -6.358,7.45 -6.745,6.84 -6.932,6.107 -7.049,5.65 -7.107,4.783 -7.106,3.507 V 0 h -1.242 v 13.265 h 1.242 v -5.41 c 0.989,1.308 2.183,1.961 3.584,1.961 0.696,0 1.324,-0.177 1.883,-0.532 0.56,-0.355 0.973,-0.843 1.24,-1.464 C -0.134,7.198 0,6.233 0,4.926 Z" />
          </g>
          <g
             transform="translate(50.4461,8.2606)"
             id="g188">
            <path
               inkscape:connector-curvature="0"
               id="path190"
               style="fill:#a6c725;fill-opacity:1;fill-rule:nonzero;stroke:none"
               d="m 0,0 c -0.001,-1.408 -0.479,-2.595 -1.434,-3.559 -0.956,-0.964 -2.138,-1.446 -3.545,-1.447 -1.408,0.001 -2.59,0.481 -3.549,1.443 -0.959,0.961 -1.439,2.148 -1.439,3.563 0,1.324 0.44,2.474 1.321,3.447 0.966,1.073 2.189,1.609 3.667,1.61 1.471,-0.001 2.692,-0.534 3.66,-1.6 C -0.439,2.482 -0.001,1.33 0,0 m -1.258,-0.027 c -10e-4,1.052 -0.358,1.961 -1.075,2.725 -0.717,0.763 -1.6,1.145 -2.646,1.145 -1.047,0 -1.929,-0.382 -2.646,-1.145 -0.717,-0.764 -1.075,-1.673 -1.074,-2.725 -10e-4,-0.68 0.16,-1.314 0.482,-1.905 0.333,-0.608 0.786,-1.076 1.361,-1.404 0.572,-0.328 1.198,-0.492 1.877,-0.492 1.451,0 2.524,0.624 3.22,1.87 0.334,0.596 0.5,1.24 0.501,1.931" />
          </g>
          <g
             transform="translate(61.9998,8.3129)"
             id="g192">
            <path
               inkscape:connector-curvature="0"
               id="path194"
               style="fill:#a6c725;fill-opacity:1;fill-rule:nonzero;stroke:none"
               d="m 0,0 c 0,-1.396 -0.469,-2.583 -1.406,-3.563 -0.949,-0.997 -2.115,-1.495 -3.497,-1.495 -1.519,0 -2.795,0.63 -3.832,1.891 V -8.313 H -9.966 V 4.758 h 1.231 V 2.999 c 0.972,1.336 2.238,2.005 3.797,2.005 1.375,0 2.542,-0.489 3.501,-1.468 C -0.479,2.556 0,1.377 0,0 M -1.249,-0.044 C -1.25,0.634 -1.42,1.277 -1.758,1.886 -2.098,2.494 -2.559,2.967 -3.141,3.304 -3.724,3.639 -4.356,3.808 -5.04,3.809 -6.129,3.808 -7.031,3.434 -7.748,2.686 -8.465,1.936 -8.823,1.014 -8.823,-0.08 c 0,-1.521 0.629,-2.633 1.887,-3.334 0.602,-0.34 1.24,-0.509 1.914,-0.509 0.677,0 1.309,0.175 1.895,0.527 0.566,0.344 1.022,0.821 1.364,1.43 0.342,0.608 0.513,1.248 0.514,1.922" />
          </g>
          <g
             transform="translate(67.8562,12.0072)"
             id="g196">
            <path
               inkscape:connector-curvature="0"
               id="path198"
               style="fill:#6e963c;fill-opacity:1;fill-rule:nonzero;stroke:none"
               d="M 0,0 H -1.953 V -8.506 H -3.201 V 0 h -1.681 v 1.064 h 1.681 v 3.554 h 1.248 V 1.064 H 0 Z" />
          </g>
          <g
             transform="translate(78.3797,8.1893)"
             id="g200">
            <path
               inkscape:connector-curvature="0"
               id="path202"
               style="fill:#6e963c;fill-opacity:1;fill-rule:nonzero;stroke:none"
               d="m 0,0 h -8.594 c 0.024,-1.071 0.357,-1.963 1.002,-2.676 0.679,-0.75 1.545,-1.124 2.601,-1.123 1.018,-10e-4 1.882,0.309 2.592,0.928 0.321,0.281 0.67,0.733 1.045,1.358 l 1.038,-0.545 C -0.963,-3.319 -1.857,-4.169 -3,-4.609 c -0.558,-0.217 -1.187,-0.325 -1.891,-0.326 -1.436,10e-4 -2.626,0.476 -3.566,1.425 -0.941,0.95 -1.412,2.144 -1.412,3.581 0,1.214 0.372,2.296 1.117,3.245 0.943,1.207 2.207,1.811 3.791,1.812 C -3.33,5.127 -2.029,4.509 -1.056,3.272 -0.363,2.393 -0.012,1.301 0,0 M -1.346,1.073 C -1.651,2.279 -2.305,3.115 -3.308,3.583 -3.823,3.821 -4.366,3.94 -4.935,3.94 -5.873,3.94 -6.68,3.64 -7.354,3.04 -7.847,2.603 -8.219,1.947 -8.471,1.073 Z" />
          </g>
          <g
             transform="translate(84.2312,12.0072)"
             id="g204">
            <path
               inkscape:connector-curvature="0"
               id="path206"
               style="fill:#6e963c;fill-opacity:1;fill-rule:nonzero;stroke:none"
               d="M 0,0 H -1.952 V -8.506 H -3.201 V 0 h -1.681 v 1.064 h 1.681 v 3.554 h 1.249 V 1.064 H 0 Z" />
          </g>
          <path
             inkscape:connector-curvature="0"
             id="path208"
             style="fill:#a6c725;fill-opacity:1;fill-rule:nonzero;stroke:none"
             d="M 0,13.213 H 10.168 V 3.045 H 0 Z" />
          <path
             inkscape:connector-curvature="0"
             id="path210"
             style="fill:#2daee5;fill-opacity:1;fill-rule:nonzero;stroke:none"
             d="M 10.837,13.213 H 21.004 V 3.045 H 10.837 Z" />
          <path
             inkscape:connector-curvature="0"
             id="path212"
             style="fill:#f6a12d;fill-opacity:1;fill-rule:nonzero;stroke:none"
             d="M 5.351,24.05 H 15.518 V 13.883 H 5.351 Z" />
          <g
             transform="translate(89.449,17.2943)"
             id="g214">
            <path
               inkscape:connector-curvature="0"
               id="path216"
               style="fill:#808081;fill-opacity:1;fill-rule:nonzero;stroke:none"
               d="m 0,0 h 1.252 v -7.684 l 4.511,3.928 H 7.602 L 2.254,-8.398 7.915,-13.487 H 6.152 l -4.9,4.381 v -4.381 H 0 Z" />
          </g>
          <g
             transform="translate(89.449,17.2943)"
             id="g218">
            <path
               inkscape:connector-curvature="0"
               id="path220"
               style="fill:none;stroke:#808081;stroke-width:0.25;stroke-linecap:butt;stroke-linejoin:miter;stroke-miterlimit:10;stroke-dasharray:none;stroke-opacity:1"
               d="m 0,0 h 1.252 v -7.684 l 4.511,3.928 H 7.602 L 2.254,-8.398 7.915,-13.487 H 6.152 l -4.9,4.381 v -4.381 H 0 Z" />
          </g>
          <g
             transform="translate(103.2508,12.5809)"
             id="g222">
            <path
               inkscape:connector-curvature="0"
               id="path224"
               style="fill:#808081;fill-opacity:1;fill-rule:nonzero;stroke:none"
               d="m 0,0 c -0.697,0 -1.34,-0.171 -1.93,-0.514 -0.59,-0.342 -1.058,-0.823 -1.407,-1.443 -0.349,-0.619 -0.522,-1.274 -0.522,-1.964 0,-0.685 0.175,-1.341 0.527,-1.966 0.351,-0.625 0.823,-1.112 1.416,-1.461 0.592,-0.348 1.228,-0.522 1.907,-0.522 0.685,0 1.334,0.173 1.947,0.518 0.614,0.346 1.085,0.813 1.416,1.402 0.331,0.59 0.496,1.254 0.496,1.992 0,1.126 -0.371,2.067 -1.112,2.824 C 1.996,-0.378 1.084,0 0,0 m 5.004,0.957 v -9.73 H 3.77 v 1.672 C 3.245,-7.739 2.656,-8.219 2.003,-8.541 1.351,-8.863 0.636,-9.024 -0.139,-9.024 c -1.377,0 -2.553,0.5 -3.528,1.498 -0.975,0.999 -1.462,2.214 -1.462,3.645 0,1.401 0.491,2.599 1.476,3.595 0.983,0.995 2.167,1.494 3.55,1.494 0.799,0 1.522,-0.17 2.168,-0.51 0.648,-0.34 1.215,-0.85 1.705,-1.53 v 1.789 z" />
          </g>
          <g
             transform="translate(103.2508,12.5809)"
             id="g226">
            <path
               inkscape:connector-curvature="0"
               id="path228"
               style="fill:none;stroke:#808081;stroke-width:0.25;stroke-linecap:butt;stroke-linejoin:miter;stroke-miterlimit:10;stroke-dasharray:none;stroke-opacity:1"
               d="m 0,0 c -0.697,0 -1.34,-0.171 -1.93,-0.514 -0.59,-0.342 -1.058,-0.823 -1.407,-1.443 -0.349,-0.619 -0.522,-1.274 -0.522,-1.964 0,-0.685 0.175,-1.341 0.527,-1.966 0.351,-0.625 0.823,-1.112 1.416,-1.461 0.592,-0.348 1.228,-0.522 1.907,-0.522 0.685,0 1.334,0.173 1.947,0.518 0.614,0.346 1.085,0.813 1.416,1.402 0.331,0.59 0.496,1.254 0.496,1.992 0,1.126 -0.371,2.067 -1.112,2.824 C 1.996,-0.378 1.084,0 0,0 Z m 5.004,0.957 v -9.73 H 3.77 v 1.672 C 3.245,-7.739 2.656,-8.219 2.003,-8.541 1.351,-8.863 0.636,-9.024 -0.139,-9.024 c -1.377,0 -2.553,0.5 -3.528,1.498 -0.975,0.999 -1.462,2.214 -1.462,3.645 0,1.401 0.491,2.599 1.476,3.595 0.983,0.995 2.167,1.494 3.55,1.494 0.799,0 1.522,-0.17 2.168,-0.51 0.648,-0.34 1.215,-0.85 1.705,-1.53 v 1.789 z" />
          </g>
          <g
             transform="translate(110.5066,13.538)"
             id="g230">
            <path
               inkscape:connector-curvature="0"
               id="path232"
               style="fill:#808081;fill-opacity:1;fill-rule:nonzero;stroke:none"
               d="m 0,0 h 1.278 v -1.422 c 0.382,0.56 0.785,0.979 1.207,1.256 0.424,0.278 0.866,0.416 1.325,0.416 0.345,0 0.714,-0.11 1.109,-0.331 L 4.267,-1.136 c -0.264,0.114 -0.485,0.17 -0.663,0.17 -0.417,0 -0.82,-0.171 -1.207,-0.514 C 2.009,-1.823 1.714,-2.355 1.511,-3.077 1.355,-3.631 1.278,-4.752 1.278,-6.439 V -9.73 H 0 Z" />
          </g>
          <g
             transform="translate(110.5066,13.538)"
             id="g234">
            <path
               inkscape:connector-curvature="0"
               id="path236"
               style="fill:none;stroke:#808081;stroke-width:0.25;stroke-linecap:butt;stroke-linejoin:miter;stroke-miterlimit:10;stroke-dasharray:none;stroke-opacity:1"
               d="m 0,0 h 1.278 v -1.422 c 0.382,0.56 0.785,0.979 1.207,1.256 0.424,0.278 0.866,0.416 1.325,0.416 0.345,0 0.714,-0.11 1.109,-0.331 L 4.267,-1.136 c -0.264,0.114 -0.485,0.17 -0.663,0.17 -0.417,0 -0.82,-0.171 -1.207,-0.514 C 2.009,-1.823 1.714,-2.355 1.511,-3.077 1.355,-3.631 1.278,-4.752 1.278,-6.439 V -9.73 H 0 Z" />
          </g>
          <path
             inkscape:connector-curvature="0"
             id="path238"
             style="fill:#808081;fill-opacity:1;fill-rule:nonzero;stroke:none"
             d="m 116.21,13.538 h 1.252 v -9.73 h -1.252 z m 0.622,4.007 c 0.285,0 0.528,-0.102 0.73,-0.304 0.201,-0.203 0.303,-0.448 0.303,-0.734 0,-0.28 -0.102,-0.522 -0.303,-0.724 -0.202,-0.203 -0.445,-0.304 -0.73,-0.304 -0.279,0 -0.52,0.101 -0.722,0.304 -0.201,0.202 -0.303,0.444 -0.303,0.724 0,0.286 0.102,0.531 0.303,0.734 0.202,0.202 0.443,0.304 0.722,0.304" />
          <path
             inkscape:connector-curvature="0"
             id="path240"
             style="fill:none;stroke:#808081;stroke-width:0.25;stroke-linecap:butt;stroke-linejoin:miter;stroke-miterlimit:10;stroke-dasharray:none;stroke-opacity:1"
             d="m 116.21,13.538 h 1.252 v -9.73 h -1.252 z m 0.622,4.007 c 0.285,0 0.528,-0.102 0.73,-0.304 0.201,-0.203 0.303,-0.448 0.303,-0.734 0,-0.28 -0.102,-0.522 -0.303,-0.724 -0.202,-0.203 -0.445,-0.304 -0.73,-0.304 -0.279,0 -0.52,0.101 -0.722,0.304 -0.201,0.202 -0.303,0.444 -0.303,0.724 0,0.286 0.102,0.531 0.303,0.734 0.202,0.202 0.443,0.304 0.722,0.304 z" />
          <g
             transform="translate(125.1512,18.099)"
             id="g242">
            <path
               inkscape:connector-curvature="0"
               id="path244"
               style="fill:#808081;fill-opacity:1;fill-rule:nonzero;stroke:none"
               d="m 0,0 h 1.923 l -2.638,-2.754 h -1.234 z m 3.014,-8.442 c -0.167,0.667 -0.41,1.201 -0.73,1.6 -0.319,0.4 -0.741,0.722 -1.266,0.967 -0.526,0.244 -1.079,0.366 -1.658,0.366 -0.955,0 -1.775,-0.307 -2.462,-0.921 -0.502,-0.447 -0.88,-1.118 -1.137,-2.012 z m 0,-2.621 1.055,-0.554 c -0.345,-0.68 -0.746,-1.229 -1.199,-1.646 -0.454,-0.417 -0.964,-0.735 -1.531,-0.952 -0.567,-0.218 -1.208,-0.327 -1.925,-0.327 -1.587,0 -2.828,0.52 -3.724,1.561 -0.894,1.04 -1.342,2.216 -1.342,3.528 0,1.234 0.379,2.334 1.136,3.3 0.961,1.228 2.247,1.842 3.859,1.842 1.659,0 2.983,-0.629 3.974,-1.887 0.704,-0.888 1.063,-1.997 1.075,-3.326 h -8.756 c 0.023,-1.131 0.385,-2.058 1.083,-2.78 0.699,-0.723 1.561,-1.084 2.588,-1.084 0.496,0 0.977,0.086 1.446,0.258 0.469,0.172 0.867,0.401 1.195,0.686 0.329,0.285 0.684,0.746 1.066,1.381" />
          </g>
          <g
             transform="translate(125.1512,18.099)"
             id="g246">
            <path
               inkscape:connector-curvature="0"
               id="path248"
               style="fill:none;stroke:#808081;stroke-width:0.25;stroke-linecap:butt;stroke-linejoin:miter;stroke-miterlimit:10;stroke-dasharray:none;stroke-opacity:1"
               d="m 0,0 h 1.923 l -2.638,-2.754 h -1.234 z m 3.014,-8.442 c -0.167,0.667 -0.41,1.201 -0.73,1.6 -0.319,0.4 -0.741,0.722 -1.266,0.967 -0.526,0.244 -1.079,0.366 -1.658,0.366 -0.955,0 -1.775,-0.307 -2.462,-0.921 -0.502,-0.447 -0.88,-1.118 -1.137,-2.012 z m 0,-2.621 1.055,-0.554 c -0.345,-0.68 -0.746,-1.229 -1.199,-1.646 -0.454,-0.417 -0.964,-0.735 -1.531,-0.952 -0.567,-0.218 -1.208,-0.327 -1.925,-0.327 -1.587,0 -2.828,0.52 -3.724,1.561 -0.894,1.04 -1.342,2.216 -1.342,3.528 0,1.234 0.379,2.334 1.136,3.3 0.961,1.228 2.247,1.842 3.859,1.842 1.659,0 2.983,-0.629 3.974,-1.887 0.704,-0.888 1.063,-1.997 1.075,-3.326 h -8.756 c 0.023,-1.131 0.385,-2.058 1.083,-2.78 0.699,-0.723 1.561,-1.084 2.588,-1.084 0.496,0 0.977,0.086 1.446,0.258 0.469,0.172 0.867,0.401 1.195,0.686 0.329,0.285 0.684,0.746 1.066,1.381 z" />
          </g>
          <g
             transform="translate(131.3113,13.538)"
             id="g250">
            <path
               inkscape:connector-curvature="0"
               id="path252"
               style="fill:#808081;fill-opacity:1;fill-rule:nonzero;stroke:none"
               d="m 0,0 h 1.279 v -1.422 c 0.382,0.56 0.784,0.979 1.207,1.256 0.424,0.278 0.865,0.416 1.325,0.416 0.345,0 0.714,-0.11 1.108,-0.331 L 4.267,-1.136 c -0.263,0.114 -0.484,0.17 -0.663,0.17 -0.416,0 -0.82,-0.171 -1.207,-0.514 C 2.01,-1.823 1.714,-2.355 1.512,-3.077 1.356,-3.631 1.279,-4.752 1.279,-6.439 V -9.73 H 0 Z" />
          </g>
          <g
             transform="translate(131.3113,13.538)"
             id="g254">
            <path
               inkscape:connector-curvature="0"
               id="path256"
               style="fill:none;stroke:#808081;stroke-width:0.25;stroke-linecap:butt;stroke-linejoin:miter;stroke-miterlimit:10;stroke-dasharray:none;stroke-opacity:1"
               d="m 0,0 h 1.279 v -1.422 c 0.382,0.56 0.784,0.979 1.207,1.256 0.424,0.278 0.865,0.416 1.325,0.416 0.345,0 0.714,-0.11 1.108,-0.331 L 4.267,-1.136 c -0.263,0.114 -0.484,0.17 -0.663,0.17 -0.416,0 -0.82,-0.171 -1.207,-0.514 C 2.01,-1.823 1.714,-2.355 1.512,-3.077 1.356,-3.631 1.279,-4.752 1.279,-6.439 V -9.73 H 0 Z" />
          </g>
          <g
             transform="translate(141.8934,12.5809)"
             id="g258">
            <path
               inkscape:connector-curvature="0"
               id="path260"
               style="fill:#808081;fill-opacity:1;fill-rule:nonzero;stroke:none"
               d="m 0,0 c -0.696,0 -1.34,-0.171 -1.93,-0.514 -0.59,-0.342 -1.058,-0.823 -1.407,-1.443 -0.348,-0.619 -0.522,-1.274 -0.522,-1.964 0,-0.685 0.175,-1.341 0.527,-1.966 0.352,-0.625 0.823,-1.112 1.416,-1.461 0.593,-0.348 1.229,-0.522 1.907,-0.522 0.685,0 1.334,0.173 1.947,0.518 0.614,0.346 1.085,0.813 1.416,1.402 0.331,0.59 0.497,1.254 0.497,1.992 0,1.126 -0.372,2.067 -1.113,2.824 C 1.996,-0.378 1.084,0 0,0 m 5.004,0.957 v -9.73 H 3.77 v 1.672 C 3.245,-7.739 2.656,-8.219 2.004,-8.541 1.351,-8.863 0.637,-9.024 -0.139,-9.024 c -1.377,0 -2.553,0.5 -3.528,1.498 -0.975,0.999 -1.462,2.214 -1.462,3.645 0,1.401 0.492,2.599 1.476,3.595 0.983,0.995 2.167,1.494 3.55,1.494 0.799,0 1.522,-0.17 2.169,-0.51 0.647,-0.34 1.215,-0.85 1.704,-1.53 v 1.789 z" />
          </g>
          <g
             transform="translate(141.8934,12.5809)"
             id="g262">
            <path
               inkscape:connector-curvature="0"
               id="path264"
               style="fill:none;stroke:#808081;stroke-width:0.25;stroke-linecap:butt;stroke-linejoin:miter;stroke-miterlimit:10;stroke-dasharray:none;stroke-opacity:1"
               d="m 0,0 c -0.696,0 -1.34,-0.171 -1.93,-0.514 -0.59,-0.342 -1.058,-0.823 -1.407,-1.443 -0.348,-0.619 -0.522,-1.274 -0.522,-1.964 0,-0.685 0.175,-1.341 0.527,-1.966 0.352,-0.625 0.823,-1.112 1.416,-1.461 0.593,-0.348 1.229,-0.522 1.907,-0.522 0.685,0 1.334,0.173 1.947,0.518 0.614,0.346 1.085,0.813 1.416,1.402 0.331,0.59 0.497,1.254 0.497,1.992 0,1.126 -0.372,2.067 -1.113,2.824 C 1.996,-0.378 1.084,0 0,0 Z m 5.004,0.957 v -9.73 H 3.77 v 1.672 C 3.245,-7.739 2.656,-8.219 2.004,-8.541 1.351,-8.863 0.637,-9.024 -0.139,-9.024 c -1.377,0 -2.553,0.5 -3.528,1.498 -0.975,0.999 -1.462,2.214 -1.462,3.645 0,1.401 0.492,2.599 1.476,3.595 0.983,0.995 2.167,1.494 3.55,1.494 0.799,0 1.522,-0.17 2.169,-0.51 0.647,-0.34 1.215,-0.85 1.704,-1.53 v 1.789 z" />
          </g>
        </g>
      </g>
    </g>
  </g>
</svg>
