<svg xmlns="http://www.w3.org/2000/svg" width="336.22" height="55" viewBox="0 0 88.96 14.55"><defs><clipPath id="a"><path d="M0 24.05h147.02V0H0z"/></clipPath></defs><g clip-path="url(#a)" transform="matrix(.60508 0 0 -.60508 0 14.55)"><path d="M29.22 6.07c0-.8-.28-1.48-.84-2.01a2.86 2.86 0 0 0-2.05-.8A3.4 3.4 0 0 0 23.5 4.6l.78.88c.62-.7 1.29-1.06 1.99-1.06.46 0 .87.15 1.23.46.36.3.54.68.54 1.13 0 .46-.21.87-.64 1.22-.21.18-.63.42-1.24.74-.71.36-1.23.72-1.56 1.08a2.44 2.44 0 0 0-.67 1.72c0 .75.25 1.36.76 1.83.5.47 1.12.7 1.87.7.87 0 1.76-.42 2.65-1.29l-.79-.81c-.65.63-1.3.95-1.92.95a1.5 1.5 0 0 1-1.01-.38c-.3-.25-.44-.56-.44-.94 0-.62.6-1.26 1.83-1.88.74-.4 1.29-.76 1.63-1.11.47-.5.7-1.09.71-1.78M39.02 3.5h-1.24v4.56c0 1.1-.05 1.84-.14 2.2-.3 1.28-1.1 1.91-2.4 1.91-.74 0-1.4-.24-2-.73a3.43 3.43 0 0 1-1.16-1.83c-.11-.46-.17-1.33-.17-2.6V3.5h-1.24v13.26h1.24v-5.41c.99 1.3 2.18 1.96 3.58 1.96.7 0 1.33-.18 1.89-.54.56-.35.97-.84 1.24-1.46.26-.62.4-1.59.4-2.9zM50.45 8.26c0-1.4-.48-2.6-1.44-3.56a4.8 4.8 0 0 0-3.54-1.45c-1.41 0-2.6.49-3.55 1.45a4.84 4.84 0 0 0-1.44 3.56c0 1.32.44 2.47 1.32 3.45a4.73 4.73 0 0 0 3.67 1.6 5 5 0 0 0 4.98-5.06m-1.26-.02c0 1.06-.36 1.96-1.08 2.73a3.49 3.49 0 0 1-2.64 1.14 3.49 3.49 0 0 1-2.65-1.14 3.84 3.84 0 0 1-1.07-2.73c0-.68.16-1.31.48-1.9.33-.6.79-1.08 1.36-1.4a3.7 3.7 0 0 1 1.88-.5c1.45 0 2.52.63 3.22 1.87.33.6.5 1.24.5 1.93M62 8.31c0-1.4-.47-2.58-1.4-3.56-.96-1-2.12-1.5-3.5-1.5-1.52 0-2.8.63-3.84 1.9V0h-1.23v13.07h1.23v-1.76a4.5 4.5 0 0 0 3.8 2c1.38 0 2.54-.48 3.5-1.46A4.88 4.88 0 0 0 62 8.3m-1.25-.04a3.93 3.93 0 0 1-1.9 3.35c-.57.33-1.2.5-1.89.5-1.09 0-2-.37-2.7-1.12a3.85 3.85 0 0 1-1.08-2.77c0-1.52.63-2.63 1.88-3.33.6-.34 1.24-.51 1.92-.51.67 0 1.3.17 1.9.53.56.34 1.01.82 1.36 1.43.34.6.51 1.24.51 1.92" fill="#a6c725"/><path d="M67.86 12H65.9V3.5h-1.24V12h-1.69v1.07h1.69v3.56h1.24v-3.56h1.96zM78.38 8.19h-8.6a3.98 3.98 0 0 1 1-2.68 3.35 3.35 0 0 1 2.6-1.12c1.03 0 1.9.3 2.6.93.32.28.67.73 1.05 1.36l1.03-.55a5.05 5.05 0 0 0-2.68-2.55 5.2 5.2 0 0 0-1.9-.33 4.82 4.82 0 0 0-4.97 5.01c0 1.21.37 2.3 1.12 3.25a4.57 4.57 0 0 0 3.79 1.8c1.63 0 2.93-.61 3.9-1.85a5.2 5.2 0 0 0 1.06-3.27m-1.35 1.07a3.55 3.55 0 0 1-3.59 2.87c-.93 0-1.74-.3-2.41-.9-.5-.44-.87-1.1-1.12-1.97zM84.23 12h-1.95V3.5h-1.25V12h-1.68v1.07h1.68v3.56h1.25v-3.56h1.95z" fill="#6e963c"/><path d="M0 13.21h10.17V3.04H0z" fill="#a6c725"/><path d="M10.84 13.21H21V3.04H10.84z" fill="#2daee5"/><path d="M5.35 24.05h10.17V13.88H5.35z" fill="#f6a12d"/><path d="M89.45 17.3h1.25V9.6l4.51 3.93h1.84L91.7 8.9l5.66-5.1H95.6L90.7 8.2V3.8h-1.25z" fill="#808081"/><path d="M89.45 17.3h1.25V9.6l4.51 3.93h1.84L91.7 8.9l5.66-5.1H95.6L90.7 8.2V3.8h-1.25z" fill="none" stroke="#808081" stroke-width=".25" stroke-miterlimit="10"/><path d="M103.25 12.58a3.77 3.77 0 0 1-3.34-1.96 3.94 3.94 0 0 1 0-3.93 3.84 3.84 0 0 1 3.33-1.98 3.91 3.91 0 0 1 3.36 1.92 4 4 0 0 1 .5 2c0 1.12-.37 2.06-1.11 2.82a3.69 3.69 0 0 1-2.74 1.13m5 .96V3.8h-1.23v1.67a5.37 5.37 0 0 0-1.77-1.44 4.77 4.77 0 0 0-2.14-.48c-1.38 0-2.55.5-3.53 1.5a5.02 5.02 0 0 0-1.46 3.64c0 1.4.5 2.6 1.48 3.6.98.99 2.16 1.49 3.55 1.49a4.58 4.58 0 0 0 3.87-2.04v1.79z" fill="#808081"/><path d="M103.25 12.58a3.77 3.77 0 0 1-3.34-1.96 3.94 3.94 0 0 1 0-3.93 3.84 3.84 0 0 1 3.33-1.98 3.91 3.91 0 0 1 3.36 1.92 4 4 0 0 1 .5 2c0 1.12-.37 2.06-1.11 2.82a3.69 3.69 0 0 1-2.74 1.13zm5 .96V3.8h-1.23v1.67a5.37 5.37 0 0 0-1.77-1.44 4.77 4.77 0 0 0-2.14-.48c-1.38 0-2.55.5-3.53 1.5a5.02 5.02 0 0 0-1.46 3.64c0 1.4.5 2.6 1.48 3.6.98.99 2.16 1.49 3.55 1.49a4.58 4.58 0 0 0 3.87-2.04v1.79z" fill="none" stroke="#808081" stroke-width=".25" stroke-miterlimit="10"/><path d="M110.5 13.54h1.28v-1.42c.39.56.79.98 1.21 1.25.43.28.87.42 1.33.42.34 0 .71-.11 1.1-.33l-.65-1.06c-.26.12-.48.17-.66.17a1.8 1.8 0 0 1-1.2-.51 3.25 3.25 0 0 1-.9-1.6c-.15-.55-.23-1.67-.23-3.36V3.8h-1.27z" fill="#808081"/><path d="M110.5 13.54h1.28v-1.42c.39.56.79.98 1.21 1.25.43.28.87.42 1.33.42.34 0 .71-.11 1.1-.33l-.65-1.06c-.26.12-.48.17-.66.17a1.8 1.8 0 0 1-1.2-.51 3.25 3.25 0 0 1-.9-1.6c-.15-.55-.23-1.67-.23-3.36V3.8h-1.27z" fill="none" stroke="#808081" stroke-width=".25" stroke-miterlimit="10"/><path d="M116.21 13.54h1.25V3.8h-1.25zm.62 4a1 1 0 0 0 .73-.3 1 1 0 0 0 .3-.73 1 1 0 0 0-.3-.73 1 1 0 0 0-.73-.3c-.28 0-.52.1-.72.3a1 1 0 0 0-.3.73c0 .28.1.53.3.73.2.2.44.3.72.3" fill="#808081"/><path d="M116.21 13.54h1.25V3.8h-1.25zm.62 4a1 1 0 0 0 .73-.3 1 1 0 0 0 .3-.73 1 1 0 0 0-.3-.73 1 1 0 0 0-.73-.3c-.28 0-.52.1-.72.3a1 1 0 0 0-.3.73c0 .28.1.53.3.73.2.2.44.3.72.3z" fill="none" stroke="#808081" stroke-width=".25" stroke-miterlimit="10"/><path d="M125.15 18.1h1.92l-2.63-2.76h-1.24zm3.02-8.44c-.17.66-.41 1.2-.73 1.6a3.9 3.9 0 0 1-2.92 1.33c-.96 0-1.78-.3-2.47-.92a4.16 4.16 0 0 1-1.14-2.01zm0-2.62l1.05-.56a5.74 5.74 0 0 0-1.2-1.64 4.76 4.76 0 0 0-3.45-1.28c-1.6 0-2.83.52-3.73 1.56a5.27 5.27 0 0 0-1.34 3.53 5.2 5.2 0 0 0 1.14 3.3 4.65 4.65 0 0 0 3.85 1.84 4.8 4.8 0 0 0 3.98-1.89c.7-.89 1.06-2 1.07-3.33h-8.75a3.96 3.96 0 0 1 1.08-2.78 3.46 3.46 0 0 1 2.59-1.08 4.16 4.16 0 0 1 2.64.94c.33.29.68.75 1.07 1.39" fill="#808081"/><path d="M125.15 18.1h1.92l-2.63-2.76h-1.24zm3.02-8.44c-.17.66-.41 1.2-.73 1.6a3.9 3.9 0 0 1-2.92 1.33c-.96 0-1.78-.3-2.47-.92a4.16 4.16 0 0 1-1.14-2.01zm0-2.62l1.05-.56a5.74 5.74 0 0 0-1.2-1.64 4.76 4.76 0 0 0-3.45-1.28c-1.6 0-2.83.52-3.73 1.56a5.27 5.27 0 0 0-1.34 3.53 5.2 5.2 0 0 0 1.14 3.3 4.65 4.65 0 0 0 3.85 1.84 4.8 4.8 0 0 0 3.98-1.89c.7-.89 1.06-2 1.07-3.33h-8.75a3.96 3.96 0 0 1 1.08-2.78 3.46 3.46 0 0 1 2.59-1.08 4.16 4.16 0 0 1 2.64.94c.33.29.68.75 1.07 1.39z" fill="none" stroke="#808081" stroke-width=".25" stroke-miterlimit="10"/><path d="M131.31 13.54h1.28v-1.42c.38.56.78.98 1.2 1.25.43.28.87.42 1.33.42.35 0 .72-.11 1.11-.33l-.65-1.06c-.26.12-.49.17-.66.17-.42 0-.82-.17-1.21-.51a3.25 3.25 0 0 1-.89-1.6c-.15-.55-.23-1.67-.23-3.36V3.8h-1.28z" fill="#808081"/><path d="M131.31 13.54h1.28v-1.42c.38.56.78.98 1.2 1.25.43.28.87.42 1.33.42.35 0 .72-.11 1.11-.33l-.65-1.06c-.26.12-.49.17-.66.17-.42 0-.82-.17-1.21-.51a3.25 3.25 0 0 1-.89-1.6c-.15-.55-.23-1.67-.23-3.36V3.8h-1.28z" fill="none" stroke="#808081" stroke-width=".25" stroke-miterlimit="10"/><path d="M141.9 12.58a3.77 3.77 0 0 1-3.34-1.96 3.95 3.95 0 0 1 0-3.93 3.85 3.85 0 0 1 3.32-1.98 3.91 3.91 0 0 1 3.37 1.92 4 4 0 0 1 .5 2c0 1.12-.38 2.06-1.12 2.82a3.69 3.69 0 0 1-2.74 1.13m5 .96V3.8h-1.23v1.67a4.78 4.78 0 0 0-3.9-1.92c-1.38 0-2.56.5-3.53 1.5a5.02 5.02 0 0 0-1.47 3.64c0 1.4.5 2.6 1.48 3.6.98.99 2.17 1.49 3.55 1.49a4.6 4.6 0 0 0 3.87-2.04v1.79z" fill="#808081"/><path d="M141.9 12.58a3.77 3.77 0 0 1-3.34-1.96 3.95 3.95 0 0 1 0-3.93 3.85 3.85 0 0 1 3.32-1.98 3.91 3.91 0 0 1 3.37 1.92 4 4 0 0 1 .5 2c0 1.12-.38 2.06-1.12 2.82a3.69 3.69 0 0 1-2.74 1.13zm5 .96V3.8h-1.24v1.67a4.78 4.78 0 0 0-3.9-1.92c-1.38 0-2.56.5-3.53 1.5a5.02 5.02 0 0 0-1.47 3.64c0 1.4.5 2.6 1.48 3.6.98.99 2.17 1.49 3.55 1.49a4.6 4.6 0 0 0 3.87-2.04v1.79z" fill="none" stroke="#808081" stroke-width=".25" stroke-miterlimit="10"/></g></svg>